<?xml version="1.0" encoding="utf-8"?>
<!-- Generator: Adobe Illustrator 28.2.0, SVG Export Plug-In . SVG Version: 6.00 Build 0)  -->
<svg version="1.1" id="Layer_1" xmlns="http://www.w3.org/2000/svg" xmlns:xlink="http://www.w3.org/1999/xlink" x="0px" y="0px"
	 viewBox="0 0 512 512" style="enable-background:new 0 0 512 512;" xml:space="preserve">
<style type="text/css">
	.st0{fill:url(#SVGID_1_);}
	.st1{fill:#FFFFFF;}
	.st2{fill:url(#SVGID_00000132056131234477425930000005430139062948143036_);}
	.st3{fill:url(#SVGID_00000145755779746183164340000005073020180087900585_);}
	.st4{fill:url(#SVGID_00000056400867791148852410000001078859950396551866_);}
	.st5{fill:#8880E8;}
	.st6{fill:#6EBCE3;}
	.st7{fill:#C171FF;}
	.st8{fill:#67BBE5;}
	.st9{fill:#FFBC00;}
	.st10{fill:#C1B7FF;}
	.st11{fill:#6B69CC;}
</style>
<g>
	<g>
		<g>
			<g>
				<g>
					<linearGradient id="SVGID_1_" gradientUnits="userSpaceOnUse" x1="77.7118" y1="189.1055" x2="427.8851" y2="180.5906">
						<stop  offset="0" style="stop-color:#C085FF"/>
						<stop  offset="1" style="stop-color:#8880E8"/>
					</linearGradient>
					<path class="st0" d="M406.8,81.3c-28.2-48.6-101-80.5-168.7-69.5c-82,13.3-153.7,88.9-154,169.9c0,6.8,0.4,69.8,46,110.6
						c29.5,26.3,66.6,34.1,66.6,34.1c23.2,4.9,51.5,4.3,51.5,7c0,1.8-11.9,1.2-14.1,7.1c-2.4,6.5,7.4,19.4,16.7,19.4
						c9.3-0.1,11.2-13.1,21.5-13.8c9.3-0.6,12.8,9.5,21.6,7.9c6.3-1.1,12.1-7.6,11.4-12.5c-0.9-6.7-13.4-8.6-13-11
						c0.5-3,21.3-0.3,37.7-1.1c4-0.2,41.3-2.7,66.8-26c26.1-23.9,40.8-70.3,23.4-87.6c-10.8-10.8-33.6-10.1-48.3-1.5
						c-16,9.3-14,22.8-27.9,38.5c-17.5,19.7-49.2,30.4-77,24.9c-38.1-7.5-64.2-44.1-68.7-80c-3.9-30.7,6.9-69.9,40.8-90.6
						c33.6-20.5,78.7-15.8,98.9,5.3c10.6,11,8.9,20.9,21.9,28.7c17.1,10.3,45.5,8.4,55.9-6.8C427.5,117,411.7,89.7,406.8,81.3z"/>
				</g>
			</g>
			<path class="st1" d="M185.6,57.1c-12.4,5-40.1,18.4-60.4,48.6c-29.6,44.1-21.5,92.3-17.5,109c1.5,6.1,7.1,10.3,13.3,9.8
				c0.9-0.1,1.8-0.2,2.7-0.5c0.2-0.1,0.4-0.1,0.6-0.2c6.6-2.2,10-9.5,7.8-16.1c-4.5-13.6-9.7-37.2-4.3-65.2
				C137.9,90.5,177,62.9,185.6,57.1z"/>
			
				<ellipse transform="matrix(0.9571 -0.2899 0.2899 0.9571 -68.0308 50.6317)" class="st1" cx="136.9" cy="255" rx="13.1" ry="19"/>
		</g>
		<g>
			
				<linearGradient id="SVGID_00000147207661508575894600000006692279169288856760_" gradientUnits="userSpaceOnUse" x1="83.026" y1="408.3058" x2="433.2152" y2="399.7905">
				<stop  offset="0" style="stop-color:#C085FF"/>
				<stop  offset="1" style="stop-color:#8880E8"/>
			</linearGradient>
			<path style="fill:url(#SVGID_00000147207661508575894600000006692279169288856760_);" d="M257.5,505.3L257.5,505.3
				c-2.2-1.7-2.8-4.8-1.2-7.2c5.8-8.7,9.4-17.8,10.8-27.2c2.1-14.5-2-23.6-6.7-34.2c-4.5-10.2-9.6-21.7-8.9-38.7
				c0.6-13,4.1-21.2,7.5-29.2c3.6-8.5,7.1-16.4,6.4-30.6c-0.6-10.8-3.3-21.6-8.2-32.1l9.6-4.5c5.5,11.8,8.6,23.9,9.2,36.1
				c0.9,16.7-3.2,26.2-7.2,35.4c-3.2,7.4-6.2,14.3-6.7,25.4c-0.6,14.5,3.5,23.9,8,33.9c4.9,11.1,10,22.5,7.5,40.1
				c-1.6,10.9-5.8,21.5-12.4,31.5C263.4,506.5,259.9,507.1,257.5,505.3z"/>
		</g>
		
			<linearGradient id="SVGID_00000049911116102659668690000012962601612294140857_" gradientUnits="userSpaceOnUse" x1="83.72" y1="436.8458" x2="433.9092" y2="428.3306">
			<stop  offset="0" style="stop-color:#C085FF"/>
			<stop  offset="1" style="stop-color:#8880E8"/>
		</linearGradient>
		<path style="fill:url(#SVGID_00000049911116102659668690000012962601612294140857_);" d="M257.7,413.4c-0.9-2.2-3.9-8.7-10.9-12.3
			c-7.3-3.8-19.1-4.6-26,3.4c-7.4,8.5-4.8,22.2,2.2,28c3.5,2.9,7.7,3.3,10.9,3.6c10.4,1,18.5-3.5,21.9-5.6
			c-3.2,3.2-7.9,7.4-14.5,10.9c-8.4,4.5-16.2,6.1-21.2,6.7c1.4,1.1,3.8,2.6,7.1,3.6c3.3,1,6.2,0.9,7.9,0.8c-0.5,2.1-1,5-0.8,8.5
			c0.1,2.8,0.7,5.1,1.2,6.9c1.4-3.9,3.6-8.7,7.1-13.7c7.5-10.4,16.9-15.7,22.2-18.2c-1-4.7-2-9.4-2.9-14.1c-1.8,1.6-4.6,3.6-8.3,5.2
			c-1.7,0.7-12.7,5.2-21.4,0c-1.7-1-4.3-2.6-5.2-5.8c-1-3.6,0.6-7.8,3.6-9.7c3-1.9,6.6-0.7,10.9,0.8c3.8,1.3,9.8,4.1,16.1,10.1
			C257.6,419.5,257.7,416.5,257.7,413.4z"/>
		
			<linearGradient id="SVGID_00000134229692844709427800000007992983146500428476_" gradientUnits="userSpaceOnUse" x1="83.7331" y1="437.3872" x2="433.9224" y2="428.8719">
			<stop  offset="0" style="stop-color:#C085FF"/>
			<stop  offset="1" style="stop-color:#8880E8"/>
		</linearGradient>
		<path style="fill:url(#SVGID_00000134229692844709427800000007992983146500428476_);" d="M260.9,415.3c1.2-2.5,5.1-9.5,13.5-13.4
			c2.2-1,12.8-6,22.5-0.3c5.3,3.1,11.3,10,10.1,18c-1.4,8.7-10.5,12.6-12.8,13.6c-10.2,4.4-19.9,0.1-21.7-0.8
			c1.5,2.5,3.9,5.7,7.4,8.6c9.1,7.4,19.6,7.5,23.1,7.4c-1.6,1-4.1,2.2-7.4,2.9c-4.2,0.9-7.7,0.4-9.8,0c0.9,1.5,1.8,3.6,2.5,6.2
			c0.9,3.4,0.8,6.3,0.7,8.3c-1.5-2.8-3.5-5.9-6.1-9.1c-4.6-5.7-9.5-9.5-13.4-12c-1-6.1-2-12.3-3-18.4c4.7,1.4,13.4,3,22-0.8
			c2.8-1.2,8.1-3.6,8.5-7.5c0.4-4.6-6.3-9.8-11.9-10.1c-7.5-0.3-15.7,8-18.8,21.2C264.5,424.5,262.7,419.9,260.9,415.3z"/>
	</g>
	<g>
		<path class="st5" d="M227.9,249.3c1.9-8.2,7.1-25.5,22.3-40.8c9.3-9.4,19-14.7,25.8-17.7c2.3-1.2,5.1-0.1,5.9,2.1
			c0.8,1.9-0.1,4.2-2.1,5.3c-6.6,2.5-15,6.5-23.6,13.2C239.4,224.5,231.4,240.6,227.9,249.3z"/>
		<path class="st6" d="M289.6,186.1c-16-5.7-32-11.5-48-17.2c-0.2,0-3.6,0-5.3,2.6c-1.6,2.4-1.1,5.9,1.5,8.2
			C255.1,181.8,272.4,183.9,289.6,186.1z"/>
		<path class="st5" d="M292.1,181.3c-10.5-10.9-21-21.9-31.5-32.8c-1.6-2.6-1.6-5.7-0.1-7.8c2.1-2.8,6.8-3.4,10.2-0.7
			C277.8,153.7,285,167.5,292.1,181.3z"/>
		<path class="st6" d="M296.7,181.2c1.3-15.3,2.5-30.7,3.8-46c1.8-2.6,5.1-3.6,7.7-2.4c2.1,0.9,3.5,3.1,3.6,5.5
			C306.7,152.6,301.7,166.9,296.7,181.2z"/>
		<path class="st5" d="M300.5,184c12.2-8.2,24.4-16.5,36.7-24.7c2.5-1.2,5.4-0.5,7.1,1.6c1.8,2.3,1.6,5.7-0.6,7.9
			C329.3,173.9,314.9,178.9,300.5,184z"/>
		<path class="st6" d="M302.6,188.8c14.4,1.9,28.8,3.7,43.2,5.6c2.1,1.5,3.3,3.9,2.9,6.1c-0.5,3-4,5.5-7.8,4.7
			C328.1,199.8,315.4,194.3,302.6,188.8z"/>
		<path class="st5" d="M297.7,191.1c9,11.7,18.1,23.5,27.1,35.2c1.8,3,1,6.9-1.7,8.8c-2.9,2.1-7.3,1.4-9.4-1.9
			C308.4,219.1,303,205.1,297.7,191.1z"/>
		<path class="st6" d="M292.2,191.7c-1.5,15.3-3,30.7-4.5,46c-1.5,3.6-5.5,5.1-8.5,3.8c-2.4-1.1-3.8-3.9-3.4-6.8
			C281.3,220.3,286.7,206,292.2,191.7z"/>
		<circle class="st7" cx="262.6" cy="222.9" r="4.5"/>
		<circle class="st8" cx="298.8" cy="239.1" r="4.4"/>
		<circle class="st7" cx="245.1" cy="152.3" r="4.5"/>
		<circle class="st9" cx="327" cy="209.7" r="4"/>
		<circle class="st8" cx="324.3" cy="146.6" r="4.9"/>
		<circle class="st9" cx="284.8" cy="138.2" r="4.8"/>
		<circle class="st6" cx="246.8" cy="125.7" r="6.1"/>
		<circle class="st9" cx="350.8" cy="152.3" r="4"/>
		<circle class="st5" cx="324.3" cy="120.5" r="4"/>
		<circle class="st5" cx="354.8" cy="184.7" r="4"/>
		<path class="st9" d="M219.2,154.1l1.5,3.1c0.1,0.2,0.2,0.3,0.4,0.3l3.4,0.5c0.4,0.1,0.6,0.6,0.3,0.9l-2.5,2.4
			c-0.1,0.1-0.2,0.3-0.1,0.5l0.6,3.4c0.1,0.4-0.4,0.7-0.8,0.5l-3.1-1.6c-0.2-0.1-0.3-0.1-0.5,0l-3.1,1.6c-0.4,0.2-0.8-0.1-0.8-0.5
			l0.6-3.4c0-0.2,0-0.3-0.1-0.5l-2.5-2.4c-0.3-0.3-0.1-0.8,0.3-0.9l3.4-0.5c0.2,0,0.3-0.1,0.4-0.3l1.5-3.1
			C218.4,153.7,219,153.7,219.2,154.1z"/>
		<path class="st8" d="M347.3,215.8l1.5,3.1c0.1,0.2,0.2,0.3,0.4,0.3l3.4,0.5c0.4,0.1,0.6,0.6,0.3,0.9l-2.5,2.4
			c-0.1,0.1-0.2,0.3-0.1,0.5l0.6,3.4c0.1,0.4-0.4,0.7-0.8,0.5l-3.1-1.6c-0.2-0.1-0.3-0.1-0.5,0l-3.1,1.6c-0.4,0.2-0.8-0.1-0.8-0.5
			l0.6-3.4c0-0.2,0-0.3-0.1-0.5l-2.5-2.4c-0.3-0.3-0.1-0.8,0.3-0.9l3.4-0.5c0.2,0,0.3-0.1,0.4-0.3l1.5-3.1
			C346.6,215.4,347.1,215.4,347.3,215.8z"/>
		<path class="st7" d="M317.2,243.9l2.3,4.6c0.1,0.2,0.3,0.4,0.6,0.4l5.1,0.7c0.6,0.1,0.9,0.9,0.4,1.3l-3.7,3.6
			c-0.2,0.2-0.3,0.4-0.2,0.7l0.9,5.1c0.1,0.6-0.6,1.1-1.1,0.8l-4.5-2.4c-0.2-0.1-0.5-0.1-0.7,0l-4.5,2.4c-0.6,0.3-1.2-0.2-1.1-0.8
			l0.9-5.1c0-0.2,0-0.5-0.2-0.7l-3.7-3.6c-0.5-0.4-0.2-1.2,0.4-1.3l5.1-0.7c0.3,0,0.5-0.2,0.6-0.4l2.3-4.6
			C316.1,243.4,316.9,243.4,317.2,243.9z"/>
		<path class="st5" d="M265.6,246.8l2.3,4.6c0.1,0.2,0.3,0.4,0.6,0.4l5.1,0.7c0.6,0.1,0.9,0.9,0.4,1.3l-3.7,3.6
			c-0.2,0.2-0.3,0.4-0.2,0.7l0.9,5.1c0.1,0.6-0.6,1.1-1.1,0.8l-4.5-2.4c-0.2-0.1-0.5-0.1-0.7,0L260,264c-0.6,0.3-1.2-0.2-1.1-0.8
			l0.9-5.1c0-0.2,0-0.5-0.2-0.7l-3.7-3.6c-0.5-0.4-0.2-1.2,0.4-1.3l5.1-0.7c0.3,0,0.5-0.2,0.6-0.4l2.3-4.6
			C264.5,246.2,265.3,246.2,265.6,246.8z"/>
		<path class="st7" d="M282.4,107.7l2.1,4.2c0.1,0.2,0.3,0.4,0.5,0.4l4.7,0.7c0.6,0.1,0.8,0.8,0.4,1.2l-3.4,3.3
			c-0.2,0.2-0.2,0.4-0.2,0.6l0.8,4.6c0.1,0.6-0.5,1-1,0.7l-4.2-2.2c-0.2-0.1-0.5-0.1-0.7,0l-4.2,2.2c-0.5,0.3-1.1-0.2-1-0.7l0.8-4.6
			c0-0.2,0-0.5-0.2-0.6l-3.4-3.3c-0.4-0.4-0.2-1.1,0.4-1.2l4.7-0.7c0.2,0,0.4-0.2,0.5-0.4l2.1-4.2
			C281.4,107.2,282.1,107.2,282.4,107.7z"/>
	</g>
	<g>
		<path class="st5" d="M382.1,195.9c0,0-4.2,1.7-5.4,1.3c-1.2-0.3-2.7-1.2-3.9-3.6c-1.2-2.3-3-6.1-4.1-7.3l5.8,0c0,0,2,3.2,3.4,5.8
			C379.4,194.9,380.6,196,382.1,195.9z"/>
		<path class="st5" d="M402.3,192.2l-3.8,3.2c0,0-2.4,0.5-4.3-1.4c-1.8-2-7.9-8.6-9.3-9.2c0,0,5.2-1.5,5.5-1.6
			c0.3-0.1,1.8,1.1,3.4,3.4c1.8,2.5,4,5.2,6,5.6C402.1,192.6,402.3,192.2,402.3,192.2z"/>
		<path class="st10" d="M390.6,182.9c0,0-2.4,2.7-2.8,4.6c-0.4,1.9-1.8,6.9-4.2,8.3c-2.5,1.4-6.9,1.6-6.9,1.6s2-1.4,3-2.8
			c1.1-1.4,2.9-6.7,3.3-7.8c0.4-1.1,1.2-1.7,2.3-2.2C386.4,184,390.6,182.9,390.6,182.9z"/>
	</g>
	<g>
		<path class="st11" d="M223.2,187.2c1.6,0.8,5.6,2.9,7.9,7.6c0.8,1.7,3.7,7.5,0.6,11.7c-2.6,3.6-7.7,3.6-8.4,3.6
			c1.9-0.4,5.3-1.3,6.2-3.7c1.3-3.3-2.5-9.2-10.7-12.7C220.2,191.6,221.7,189.4,223.2,187.2z"/>
		<path class="st5" d="M232.9,203.8c-0.1,0.5-0.3,1.2-0.6,1.9c-1.9,4.2-6.5,7.1-11.1,7.6c-6.6,0.8-11.2-3.4-11.8-4.1
			c1.6-0.3,3.2-0.5,4.8-0.8c0.2-1.3,0.4-2.5,0.6-3.8c0.5,0.9,2.4,3.9,6,4.8C225,210.6,230,208.4,232.9,203.8z"/>
		<path class="st5" d="M231.4,195.5c1,0.6,1.7,0.4,1.9,0.4c1.2-0.4,2.1-2.5,1.4-5.1c1.4-0.5,2.7-1,4.1-1.4c0.2,0.5,1.6,3.6,0.1,7
			c-1.7,3.8-5.6,4.7-6,4.8c-0.1-0.7-0.2-1.4-0.4-2.3C232.3,197.5,231.9,196.4,231.4,195.5z"/>
	</g>
	<g>
		<path class="st10" d="M382.2,157.9c0,0,1-0.4,3.6,0.8c2.6,1.2,4.2,2.5,7.2,1.7c3-0.8,2.9-4.5,2.9-4.5s-0.9,1.5-3.1,1.3
			c-5.9-0.3-6.6-3.7-8.6-2.3C382.3,156.3,382.2,157.9,382.2,157.9z"/>
		<path class="st5" d="M378.2,167.8c0,0,3.3-0.9,4-1.6c0.6-0.7,1.3-1.9,1.2-3.9c-0.1-2,0.6-6.2,0.9-7.4l-4.4,3.3c0,0-0.1,2.9,0,5.2
			C379.9,165.8,379.2,167.3,378.2,167.8z"/>
		<path class="st5" d="M362.9,175.9l4.3,0.1c0,0,1.8-0.6,2.3-2.6c0.4-2,0.4-10.3,2.8-11.6c0,0-4.8,1.4-5,1.4
			c-0.2,0.1-0.7,1.4-0.9,3.6c-0.2,2.3-0.6,7.1-1.8,8.1C363.2,176.1,362.9,175.9,362.9,175.9z"/>
		<path class="st10" d="M367,163.1c0,0,3.2,0.2,4.2,1.3c1,1.1,3.8,3.8,6,3.8c2.1-0.1,5.1-2,5.1-2s-1.4,0.6-2.6,0.1
			c-1.2-0.5-4.6-3.4-5.3-4c-0.7-0.6-1.4-0.7-2.3-0.6C371,161.8,367,163.1,367,163.1z"/>
	</g>
</g>
</svg>
